<mxfile host="app.diagrams.net" modified="2022-04-01T06:12:42.491Z" agent="5.0 (Windows NT 10.0; Win64; x64) AppleWebKit/537.36 (KHTML, like Gecko) Chrome/100.0.4896.60 Safari/537.36" etag="NDvyMIAQyJuAFNlsF3oL" version="17.4.0" type="github">
  <diagram id="6UV-1qoBHsLibGj80SDf" name="Page-1">
    <mxGraphModel dx="827" dy="463" grid="1" gridSize="10" guides="1" tooltips="1" connect="1" arrows="1" fold="1" page="1" pageScale="1" pageWidth="1100" pageHeight="850" math="0" shadow="0">
      <root>
        <mxCell id="0" />
        <mxCell id="1" parent="0" />
        <mxCell id="unU0mGyHGdW0wp5FwP-I-1" value="" style="ellipse;html=1;shape=startState;fillColor=#000000;strokeColor=#ff0000;" parent="1" vertex="1">
          <mxGeometry x="225" y="90" width="30" height="30" as="geometry" />
        </mxCell>
        <mxCell id="unU0mGyHGdW0wp5FwP-I-2" value="" style="edgeStyle=orthogonalEdgeStyle;html=1;verticalAlign=bottom;endArrow=open;endSize=8;strokeColor=#ff0000;rounded=0;entryX=0.5;entryY=0;entryDx=0;entryDy=0;" parent="1" source="unU0mGyHGdW0wp5FwP-I-1" target="unU0mGyHGdW0wp5FwP-I-26" edge="1">
          <mxGeometry relative="1" as="geometry">
            <mxPoint x="400" y="120" as="targetPoint" />
          </mxGeometry>
        </mxCell>
        <mxCell id="unU0mGyHGdW0wp5FwP-I-26" value="Secure clear transaction for the previous semester" style="rounded=1;whiteSpace=wrap;html=1;arcSize=40;fontColor=#000000;fillColor=#ffffc0;strokeColor=#ff0000;" parent="1" vertex="1">
          <mxGeometry x="180" y="150" width="120" height="60" as="geometry" />
        </mxCell>
        <mxCell id="unU0mGyHGdW0wp5FwP-I-27" value="" style="edgeStyle=orthogonalEdgeStyle;html=1;verticalAlign=bottom;endArrow=open;endSize=8;strokeColor=#ff0000;rounded=0;entryX=0.5;entryY=0;entryDx=0;entryDy=0;" parent="1" source="unU0mGyHGdW0wp5FwP-I-26" target="unU0mGyHGdW0wp5FwP-I-28" edge="1">
          <mxGeometry relative="1" as="geometry">
            <mxPoint x="365" y="320" as="targetPoint" />
          </mxGeometry>
        </mxCell>
        <mxCell id="unU0mGyHGdW0wp5FwP-I-28" value="Fill up enrollment form" style="rounded=1;whiteSpace=wrap;html=1;arcSize=40;fontColor=#000000;fillColor=#ffffc0;strokeColor=#ff0000;" parent="1" vertex="1">
          <mxGeometry x="380" y="200" width="120" height="40" as="geometry" />
        </mxCell>
        <mxCell id="unU0mGyHGdW0wp5FwP-I-29" value="" style="edgeStyle=orthogonalEdgeStyle;html=1;verticalAlign=bottom;endArrow=open;endSize=8;strokeColor=#ff0000;rounded=0;entryX=0.5;entryY=0;entryDx=0;entryDy=0;" parent="1" source="unU0mGyHGdW0wp5FwP-I-28" target="unU0mGyHGdW0wp5FwP-I-30" edge="1">
          <mxGeometry relative="1" as="geometry">
            <mxPoint x="365" y="430" as="targetPoint" />
          </mxGeometry>
        </mxCell>
        <mxCell id="unU0mGyHGdW0wp5FwP-I-30" value="Verified?" style="rhombus;whiteSpace=wrap;html=1;fillColor=#ffffc0;strokeColor=#ff0000;" parent="1" vertex="1">
          <mxGeometry x="400" y="270" width="80" height="50" as="geometry" />
        </mxCell>
        <mxCell id="unU0mGyHGdW0wp5FwP-I-31" value="no" style="edgeStyle=orthogonalEdgeStyle;html=1;align=left;verticalAlign=bottom;endArrow=open;endSize=8;strokeColor=#ff0000;rounded=0;entryX=0.5;entryY=1;entryDx=0;entryDy=0;" parent="1" source="unU0mGyHGdW0wp5FwP-I-30" target="unU0mGyHGdW0wp5FwP-I-26" edge="1">
          <mxGeometry x="-1" relative="1" as="geometry">
            <mxPoint x="495" y="445" as="targetPoint" />
          </mxGeometry>
        </mxCell>
        <mxCell id="unU0mGyHGdW0wp5FwP-I-32" value="yes" style="edgeStyle=orthogonalEdgeStyle;html=1;align=left;verticalAlign=top;endArrow=open;endSize=8;strokeColor=#ff0000;rounded=0;exitX=0.5;exitY=1;exitDx=0;exitDy=0;entryX=0.336;entryY=0.3;entryDx=0;entryDy=0;entryPerimeter=0;" parent="1" source="unU0mGyHGdW0wp5FwP-I-30" target="unU0mGyHGdW0wp5FwP-I-38" edge="1">
          <mxGeometry x="-1" relative="1" as="geometry">
            <mxPoint x="440" y="370" as="targetPoint" />
            <mxPoint x="440" y="240" as="sourcePoint" />
            <Array as="points">
              <mxPoint x="440" y="345" />
              <mxPoint x="441" y="345" />
            </Array>
          </mxGeometry>
        </mxCell>
        <mxCell id="unU0mGyHGdW0wp5FwP-I-57" style="edgeStyle=orthogonalEdgeStyle;rounded=0;orthogonalLoop=1;jettySize=auto;html=1;exitX=0.75;exitY=0.5;exitDx=0;exitDy=0;exitPerimeter=0;entryX=0.5;entryY=0;entryDx=0;entryDy=0;fillColor=#f8cecc;strokeColor=#FF0000;" parent="1" source="unU0mGyHGdW0wp5FwP-I-38" target="unU0mGyHGdW0wp5FwP-I-55" edge="1">
          <mxGeometry relative="1" as="geometry" />
        </mxCell>
        <mxCell id="unU0mGyHGdW0wp5FwP-I-38" value="" style="shape=line;html=1;strokeWidth=6;strokeColor=#ff0000;" parent="1" vertex="1">
          <mxGeometry x="360" y="370" width="240" height="10" as="geometry" />
        </mxCell>
        <mxCell id="unU0mGyHGdW0wp5FwP-I-39" value="" style="edgeStyle=orthogonalEdgeStyle;html=1;verticalAlign=bottom;endArrow=open;endSize=8;strokeColor=#ff0000;rounded=0;exitX=0.25;exitY=0.5;exitDx=0;exitDy=0;exitPerimeter=0;entryX=0.5;entryY=0;entryDx=0;entryDy=0;" parent="1" source="unU0mGyHGdW0wp5FwP-I-38" target="unU0mGyHGdW0wp5FwP-I-53" edge="1">
          <mxGeometry relative="1" as="geometry">
            <mxPoint x="730" y="270" as="targetPoint" />
          </mxGeometry>
        </mxCell>
        <mxCell id="unU0mGyHGdW0wp5FwP-I-43" value="" style="shape=line;html=1;strokeWidth=6;strokeColor=#ff0000;" parent="1" vertex="1">
          <mxGeometry x="360" y="500" width="240" height="10" as="geometry" />
        </mxCell>
        <mxCell id="unU0mGyHGdW0wp5FwP-I-44" value="" style="edgeStyle=orthogonalEdgeStyle;html=1;verticalAlign=bottom;endArrow=open;endSize=8;strokeColor=#ff0000;rounded=0;exitX=0.493;exitY=0.241;exitDx=0;exitDy=0;exitPerimeter=0;entryX=0.5;entryY=0;entryDx=0;entryDy=0;" parent="1" source="unU0mGyHGdW0wp5FwP-I-43" target="unU0mGyHGdW0wp5FwP-I-48" edge="1">
          <mxGeometry relative="1" as="geometry">
            <mxPoint x="478" y="560" as="targetPoint" />
            <Array as="points">
              <mxPoint x="480" y="502" />
            </Array>
          </mxGeometry>
        </mxCell>
        <mxCell id="unU0mGyHGdW0wp5FwP-I-48" value="Update Student Profile" style="rounded=1;whiteSpace=wrap;html=1;arcSize=40;fontColor=#000000;fillColor=#ffffc0;strokeColor=#ff0000;" parent="1" vertex="1">
          <mxGeometry x="420" y="560" width="120" height="40" as="geometry" />
        </mxCell>
        <mxCell id="unU0mGyHGdW0wp5FwP-I-49" value="" style="edgeStyle=orthogonalEdgeStyle;html=1;verticalAlign=bottom;endArrow=open;endSize=8;strokeColor=#ff0000;rounded=0;entryX=0.5;entryY=0;entryDx=0;entryDy=0;" parent="1" source="unU0mGyHGdW0wp5FwP-I-48" target="unU0mGyHGdW0wp5FwP-I-52" edge="1">
          <mxGeometry relative="1" as="geometry">
            <mxPoint x="480" y="660" as="targetPoint" />
          </mxGeometry>
        </mxCell>
        <mxCell id="unU0mGyHGdW0wp5FwP-I-52" value="" style="ellipse;html=1;shape=endState;fillColor=#000000;strokeColor=#ff0000;" parent="1" vertex="1">
          <mxGeometry x="465" y="630" width="30" height="30" as="geometry" />
        </mxCell>
        <mxCell id="unU0mGyHGdW0wp5FwP-I-53" value="Register Student to database" style="rounded=1;whiteSpace=wrap;html=1;arcSize=40;fontColor=#000000;fillColor=#ffffc0;strokeColor=#ff0000;" parent="1" vertex="1">
          <mxGeometry x="360" y="420" width="120" height="50" as="geometry" />
        </mxCell>
        <mxCell id="unU0mGyHGdW0wp5FwP-I-54" value="" style="edgeStyle=orthogonalEdgeStyle;html=1;verticalAlign=bottom;endArrow=open;endSize=8;strokeColor=#ff0000;rounded=0;entryX=0.25;entryY=0.5;entryDx=0;entryDy=0;entryPerimeter=0;" parent="1" source="unU0mGyHGdW0wp5FwP-I-53" target="unU0mGyHGdW0wp5FwP-I-43" edge="1">
          <mxGeometry relative="1" as="geometry">
            <mxPoint x="690" y="535" as="targetPoint" />
          </mxGeometry>
        </mxCell>
        <mxCell id="unU0mGyHGdW0wp5FwP-I-55" value="Sign Step 1" style="rounded=1;whiteSpace=wrap;html=1;arcSize=40;fontColor=#000000;fillColor=#ffffc0;strokeColor=#ff0000;" parent="1" vertex="1">
          <mxGeometry x="495" y="420" width="120" height="50" as="geometry" />
        </mxCell>
        <mxCell id="unU0mGyHGdW0wp5FwP-I-56" value="" style="edgeStyle=orthogonalEdgeStyle;html=1;verticalAlign=bottom;endArrow=open;endSize=8;strokeColor=#ff0000;rounded=0;entryX=0.75;entryY=0.5;entryDx=0;entryDy=0;entryPerimeter=0;" parent="1" target="unU0mGyHGdW0wp5FwP-I-43" edge="1">
          <mxGeometry relative="1" as="geometry">
            <mxPoint x="600" y="510" as="targetPoint" />
            <mxPoint x="540" y="470" as="sourcePoint" />
            <Array as="points">
              <mxPoint x="540" y="480" />
              <mxPoint x="540" y="480" />
            </Array>
          </mxGeometry>
        </mxCell>
        <mxCell id="kkd1HjFGx7jPlW_FTLLK-1" value="STUDENT REGISTRATION" style="text;html=1;strokeColor=none;fillColor=none;align=center;verticalAlign=middle;whiteSpace=wrap;rounded=0;fontSize=14;fontStyle=1" vertex="1" parent="1">
          <mxGeometry x="280" y="20" width="200" height="60" as="geometry" />
        </mxCell>
        <mxCell id="kkd1HjFGx7jPlW_FTLLK-2" value="SCHOOL PAYMENT SYSTEM" style="text;html=1;strokeColor=none;fillColor=none;align=center;verticalAlign=middle;whiteSpace=wrap;rounded=0;fontSize=14;fontStyle=1" vertex="1" parent="1">
          <mxGeometry x="862" y="20" width="200" height="60" as="geometry" />
        </mxCell>
        <mxCell id="kkd1HjFGx7jPlW_FTLLK-3" value="" style="ellipse;html=1;shape=startState;fillColor=#000000;strokeColor=#ff0000;fontSize=14;" vertex="1" parent="1">
          <mxGeometry x="942" y="100" width="30" height="30" as="geometry" />
        </mxCell>
        <mxCell id="kkd1HjFGx7jPlW_FTLLK-4" value="" style="edgeStyle=orthogonalEdgeStyle;html=1;verticalAlign=bottom;endArrow=open;endSize=8;strokeColor=#ff0000;rounded=0;fontSize=14;entryX=0.5;entryY=0;entryDx=0;entryDy=0;" edge="1" source="kkd1HjFGx7jPlW_FTLLK-3" parent="1" target="kkd1HjFGx7jPlW_FTLLK-5">
          <mxGeometry relative="1" as="geometry">
            <mxPoint x="957" y="180" as="targetPoint" />
          </mxGeometry>
        </mxCell>
        <mxCell id="kkd1HjFGx7jPlW_FTLLK-11" style="edgeStyle=orthogonalEdgeStyle;rounded=0;orthogonalLoop=1;jettySize=auto;html=1;entryX=0.5;entryY=0;entryDx=0;entryDy=0;fontSize=14;strokeColor=#FF0000;" edge="1" parent="1" source="kkd1HjFGx7jPlW_FTLLK-5" target="kkd1HjFGx7jPlW_FTLLK-7">
          <mxGeometry relative="1" as="geometry" />
        </mxCell>
        <mxCell id="kkd1HjFGx7jPlW_FTLLK-5" value="Secure that student was registered" style="rounded=1;whiteSpace=wrap;html=1;arcSize=40;fontColor=#000000;fillColor=#ffffc0;strokeColor=#ff0000;fontSize=14;" vertex="1" parent="1">
          <mxGeometry x="884.5" y="155" width="145" height="50" as="geometry" />
        </mxCell>
        <mxCell id="kkd1HjFGx7jPlW_FTLLK-14" style="edgeStyle=orthogonalEdgeStyle;rounded=0;orthogonalLoop=1;jettySize=auto;html=1;entryX=0.5;entryY=0;entryDx=0;entryDy=0;fontSize=14;strokeColor=#FF0000;" edge="1" parent="1" source="kkd1HjFGx7jPlW_FTLLK-7" target="kkd1HjFGx7jPlW_FTLLK-17">
          <mxGeometry relative="1" as="geometry">
            <mxPoint x="957" y="330" as="targetPoint" />
          </mxGeometry>
        </mxCell>
        <mxCell id="kkd1HjFGx7jPlW_FTLLK-7" value="Registered?" style="rhombus;whiteSpace=wrap;html=1;fillColor=#ffffc0;strokeColor=#ff0000;fontSize=14;" vertex="1" parent="1">
          <mxGeometry x="909.5" y="230" width="95" height="60" as="geometry" />
        </mxCell>
        <mxCell id="kkd1HjFGx7jPlW_FTLLK-8" value="no" style="edgeStyle=orthogonalEdgeStyle;html=1;align=left;verticalAlign=bottom;endArrow=open;endSize=8;strokeColor=#ff0000;rounded=0;fontSize=14;entryX=1;entryY=0.5;entryDx=0;entryDy=0;" edge="1" source="kkd1HjFGx7jPlW_FTLLK-7" parent="1" target="kkd1HjFGx7jPlW_FTLLK-5">
          <mxGeometry x="-1" relative="1" as="geometry">
            <mxPoint x="1092" y="360" as="targetPoint" />
            <Array as="points">
              <mxPoint x="957" y="260" />
              <mxPoint x="1062" y="260" />
              <mxPoint x="1062" y="180" />
            </Array>
          </mxGeometry>
        </mxCell>
        <mxCell id="kkd1HjFGx7jPlW_FTLLK-15" value="yes" style="text;html=1;strokeColor=none;fillColor=none;align=center;verticalAlign=middle;whiteSpace=wrap;rounded=0;fontSize=14;" vertex="1" parent="1">
          <mxGeometry x="942" y="290" width="60" height="30" as="geometry" />
        </mxCell>
        <mxCell id="kkd1HjFGx7jPlW_FTLLK-17" value="Check program" style="rounded=1;whiteSpace=wrap;html=1;arcSize=40;fontColor=#000000;fillColor=#ffffc0;strokeColor=#ff0000;fontSize=14;" vertex="1" parent="1">
          <mxGeometry x="897" y="330" width="120" height="40" as="geometry" />
        </mxCell>
        <mxCell id="kkd1HjFGx7jPlW_FTLLK-18" value="" style="edgeStyle=orthogonalEdgeStyle;html=1;verticalAlign=bottom;endArrow=open;endSize=8;strokeColor=#ff0000;rounded=0;fontSize=14;entryX=0.5;entryY=0;entryDx=0;entryDy=0;" edge="1" source="kkd1HjFGx7jPlW_FTLLK-17" parent="1" target="kkd1HjFGx7jPlW_FTLLK-19">
          <mxGeometry relative="1" as="geometry">
            <mxPoint x="957" y="420" as="targetPoint" />
          </mxGeometry>
        </mxCell>
        <mxCell id="kkd1HjFGx7jPlW_FTLLK-19" value="Regular college?" style="rhombus;whiteSpace=wrap;html=1;fillColor=#ffffc0;strokeColor=#ff0000;fontSize=14;" vertex="1" parent="1">
          <mxGeometry x="898.25" y="410" width="117.5" height="70" as="geometry" />
        </mxCell>
        <mxCell id="kkd1HjFGx7jPlW_FTLLK-20" value="no" style="edgeStyle=orthogonalEdgeStyle;html=1;align=left;verticalAlign=bottom;endArrow=open;endSize=8;strokeColor=#ff0000;rounded=0;fontSize=14;entryX=0.5;entryY=0;entryDx=0;entryDy=0;" edge="1" source="kkd1HjFGx7jPlW_FTLLK-19" parent="1" target="kkd1HjFGx7jPlW_FTLLK-37">
          <mxGeometry x="-1" relative="1" as="geometry">
            <mxPoint x="1052" y="470" as="targetPoint" />
            <Array as="points">
              <mxPoint x="1052" y="445" />
            </Array>
          </mxGeometry>
        </mxCell>
        <mxCell id="kkd1HjFGx7jPlW_FTLLK-21" value="yes" style="edgeStyle=orthogonalEdgeStyle;html=1;align=left;verticalAlign=top;endArrow=open;endSize=8;strokeColor=#ff0000;rounded=0;fontSize=14;entryX=0.5;entryY=0;entryDx=0;entryDy=0;entryPerimeter=0;" edge="1" source="kkd1HjFGx7jPlW_FTLLK-19" parent="1" target="kkd1HjFGx7jPlW_FTLLK-25">
          <mxGeometry x="0.2" y="-25" relative="1" as="geometry">
            <mxPoint x="842" y="490" as="targetPoint" />
            <mxPoint as="offset" />
          </mxGeometry>
        </mxCell>
        <mxCell id="kkd1HjFGx7jPlW_FTLLK-45" style="edgeStyle=orthogonalEdgeStyle;rounded=0;orthogonalLoop=1;jettySize=auto;html=1;exitX=0.5;exitY=1;exitDx=0;exitDy=0;entryX=0.25;entryY=0.5;entryDx=0;entryDy=0;entryPerimeter=0;fontSize=14;strokeColor=#FF0000;" edge="1" parent="1" source="kkd1HjFGx7jPlW_FTLLK-25" target="kkd1HjFGx7jPlW_FTLLK-27">
          <mxGeometry relative="1" as="geometry" />
        </mxCell>
        <mxCell id="kkd1HjFGx7jPlW_FTLLK-25" value="Pay enrollment fee of P1500" style="rounded=1;whiteSpace=wrap;html=1;arcSize=40;fontColor=#000000;fillColor=#ffffc0;strokeColor=#ff0000;fontSize=14;" vertex="1" parent="1">
          <mxGeometry x="772" y="490" width="120" height="40" as="geometry" />
        </mxCell>
        <mxCell id="kkd1HjFGx7jPlW_FTLLK-34" style="edgeStyle=orthogonalEdgeStyle;rounded=0;orthogonalLoop=1;jettySize=auto;html=1;exitX=0.75;exitY=0.5;exitDx=0;exitDy=0;exitPerimeter=0;entryX=0.25;entryY=0;entryDx=0;entryDy=0;fontSize=14;strokeColor=#FF0000;" edge="1" parent="1" source="kkd1HjFGx7jPlW_FTLLK-27" target="kkd1HjFGx7jPlW_FTLLK-32">
          <mxGeometry relative="1" as="geometry">
            <Array as="points">
              <mxPoint x="907" y="565" />
            </Array>
          </mxGeometry>
        </mxCell>
        <mxCell id="kkd1HjFGx7jPlW_FTLLK-27" value="" style="shape=line;html=1;strokeWidth=6;strokeColor=#ff0000;fontSize=14;" vertex="1" parent="1">
          <mxGeometry x="750" y="560" width="392" height="10" as="geometry" />
        </mxCell>
        <mxCell id="kkd1HjFGx7jPlW_FTLLK-28" value="" style="edgeStyle=orthogonalEdgeStyle;html=1;verticalAlign=bottom;endArrow=open;endSize=8;strokeColor=#ff0000;rounded=0;fontSize=14;entryX=0.5;entryY=0;entryDx=0;entryDy=0;" edge="1" source="kkd1HjFGx7jPlW_FTLLK-27" parent="1" target="kkd1HjFGx7jPlW_FTLLK-29">
          <mxGeometry relative="1" as="geometry">
            <mxPoint x="850" y="670" as="targetPoint" />
            <Array as="points">
              <mxPoint x="791" y="630" />
              <mxPoint x="791" y="630" />
            </Array>
          </mxGeometry>
        </mxCell>
        <mxCell id="kkd1HjFGx7jPlW_FTLLK-29" value="Sign Step 2" style="rounded=1;whiteSpace=wrap;html=1;arcSize=40;fontColor=#000000;fillColor=#ffffc0;strokeColor=#ff0000;fontSize=14;" vertex="1" parent="1">
          <mxGeometry x="720" y="630" width="142" height="60" as="geometry" />
        </mxCell>
        <mxCell id="kkd1HjFGx7jPlW_FTLLK-30" value="" style="edgeStyle=orthogonalEdgeStyle;html=1;verticalAlign=bottom;endArrow=open;endSize=8;strokeColor=#ff0000;rounded=0;fontSize=14;entryX=0.25;entryY=0.5;entryDx=0;entryDy=0;entryPerimeter=0;" edge="1" source="kkd1HjFGx7jPlW_FTLLK-29" parent="1" target="kkd1HjFGx7jPlW_FTLLK-35">
          <mxGeometry relative="1" as="geometry">
            <mxPoint x="792" y="750" as="targetPoint" />
            <Array as="points">
              <mxPoint x="793" y="710" />
              <mxPoint x="793" y="710" />
            </Array>
          </mxGeometry>
        </mxCell>
        <mxCell id="kkd1HjFGx7jPlW_FTLLK-32" value="Create receipt of payment." style="rounded=1;whiteSpace=wrap;html=1;arcSize=40;fontColor=#000000;fillColor=#ffffc0;strokeColor=#ff0000;fontSize=14;" vertex="1" parent="1">
          <mxGeometry x="874.5" y="630" width="130" height="60" as="geometry" />
        </mxCell>
        <mxCell id="kkd1HjFGx7jPlW_FTLLK-33" value="" style="edgeStyle=orthogonalEdgeStyle;html=1;verticalAlign=bottom;endArrow=open;endSize=8;strokeColor=#ff0000;rounded=0;fontSize=14;entryX=0.75;entryY=0.5;entryDx=0;entryDy=0;entryPerimeter=0;" edge="1" source="kkd1HjFGx7jPlW_FTLLK-32" parent="1" target="kkd1HjFGx7jPlW_FTLLK-35">
          <mxGeometry relative="1" as="geometry">
            <mxPoint x="940" y="750" as="targetPoint" />
          </mxGeometry>
        </mxCell>
        <mxCell id="kkd1HjFGx7jPlW_FTLLK-35" value="" style="shape=line;html=1;strokeWidth=6;strokeColor=#ff0000;fontSize=14;" vertex="1" parent="1">
          <mxGeometry x="720" y="750" width="292" height="10" as="geometry" />
        </mxCell>
        <mxCell id="kkd1HjFGx7jPlW_FTLLK-36" value="" style="edgeStyle=orthogonalEdgeStyle;html=1;verticalAlign=bottom;endArrow=open;endSize=8;strokeColor=#ff0000;rounded=0;fontSize=14;" edge="1" source="kkd1HjFGx7jPlW_FTLLK-35" parent="1">
          <mxGeometry relative="1" as="geometry">
            <mxPoint x="866" y="820" as="targetPoint" />
          </mxGeometry>
        </mxCell>
        <mxCell id="kkd1HjFGx7jPlW_FTLLK-39" style="edgeStyle=orthogonalEdgeStyle;rounded=0;orthogonalLoop=1;jettySize=auto;html=1;exitX=0.5;exitY=1;exitDx=0;exitDy=0;entryX=0.778;entryY=0.667;entryDx=0;entryDy=0;entryPerimeter=0;fontSize=14;strokeColor=#FF0000;" edge="1" parent="1" source="kkd1HjFGx7jPlW_FTLLK-37" target="kkd1HjFGx7jPlW_FTLLK-27">
          <mxGeometry relative="1" as="geometry" />
        </mxCell>
        <mxCell id="kkd1HjFGx7jPlW_FTLLK-37" value="Pay enrollment fee of P1500" style="rounded=1;whiteSpace=wrap;html=1;arcSize=40;fontColor=#000000;fillColor=#ffffc0;strokeColor=#ff0000;fontSize=14;" vertex="1" parent="1">
          <mxGeometry x="992" y="500" width="120" height="40" as="geometry" />
        </mxCell>
        <mxCell id="kkd1HjFGx7jPlW_FTLLK-49" style="edgeStyle=orthogonalEdgeStyle;rounded=0;orthogonalLoop=1;jettySize=auto;html=1;exitX=0.5;exitY=1;exitDx=0;exitDy=0;entryX=0.5;entryY=0;entryDx=0;entryDy=0;fontSize=14;strokeColor=#FF0000;" edge="1" parent="1" source="kkd1HjFGx7jPlW_FTLLK-42" target="kkd1HjFGx7jPlW_FTLLK-47">
          <mxGeometry relative="1" as="geometry">
            <Array as="points">
              <mxPoint x="870" y="860" />
            </Array>
          </mxGeometry>
        </mxCell>
        <mxCell id="kkd1HjFGx7jPlW_FTLLK-42" value="Update student profile." style="rounded=1;whiteSpace=wrap;html=1;arcSize=40;fontColor=#000000;fillColor=#ffffc0;strokeColor=#ff0000;fontSize=14;" vertex="1" parent="1">
          <mxGeometry x="806" y="820" width="120" height="40" as="geometry" />
        </mxCell>
        <mxCell id="kkd1HjFGx7jPlW_FTLLK-47" value="" style="ellipse;html=1;shape=endState;fillColor=#000000;strokeColor=#ff0000;fontSize=14;" vertex="1" parent="1">
          <mxGeometry x="855" y="920" width="30" height="30" as="geometry" />
        </mxCell>
        <mxCell id="kkd1HjFGx7jPlW_FTLLK-50" value="STUDENT EVALUATION/MONITORING" style="text;html=1;strokeColor=none;fillColor=none;align=center;verticalAlign=middle;whiteSpace=wrap;rounded=0;fontSize=14;fontStyle=1" vertex="1" parent="1">
          <mxGeometry x="1220" y="20" width="200" height="60" as="geometry" />
        </mxCell>
        <mxCell id="kkd1HjFGx7jPlW_FTLLK-51" value="" style="ellipse;html=1;shape=startState;fillColor=#000000;strokeColor=#ff0000;fontSize=14;" vertex="1" parent="1">
          <mxGeometry x="1305" y="90" width="30" height="30" as="geometry" />
        </mxCell>
        <mxCell id="kkd1HjFGx7jPlW_FTLLK-52" value="" style="edgeStyle=orthogonalEdgeStyle;html=1;verticalAlign=bottom;endArrow=open;endSize=8;strokeColor=#ff0000;rounded=0;fontSize=14;entryX=0.5;entryY=0;entryDx=0;entryDy=0;" edge="1" source="kkd1HjFGx7jPlW_FTLLK-51" parent="1" target="kkd1HjFGx7jPlW_FTLLK-53">
          <mxGeometry relative="1" as="geometry">
            <mxPoint x="1320" y="180" as="targetPoint" />
          </mxGeometry>
        </mxCell>
        <mxCell id="kkd1HjFGx7jPlW_FTLLK-53" value="Secure that previous steps are signed." style="rounded=1;whiteSpace=wrap;html=1;arcSize=40;fontColor=#000000;fillColor=#ffffc0;strokeColor=#ff0000;fontSize=14;" vertex="1" parent="1">
          <mxGeometry x="1240" y="170" width="160" height="40" as="geometry" />
        </mxCell>
        <mxCell id="kkd1HjFGx7jPlW_FTLLK-54" value="" style="edgeStyle=orthogonalEdgeStyle;html=1;verticalAlign=bottom;endArrow=open;endSize=8;strokeColor=#ff0000;rounded=0;fontSize=14;entryX=0.5;entryY=0;entryDx=0;entryDy=0;" edge="1" source="kkd1HjFGx7jPlW_FTLLK-53" parent="1" target="kkd1HjFGx7jPlW_FTLLK-55">
          <mxGeometry relative="1" as="geometry">
            <mxPoint x="1320" y="280" as="targetPoint" />
          </mxGeometry>
        </mxCell>
        <mxCell id="kkd1HjFGx7jPlW_FTLLK-55" value="Secure?" style="rhombus;whiteSpace=wrap;html=1;fillColor=#ffffc0;strokeColor=#ff0000;fontSize=14;" vertex="1" parent="1">
          <mxGeometry x="1280" y="260" width="80" height="40" as="geometry" />
        </mxCell>
        <mxCell id="kkd1HjFGx7jPlW_FTLLK-56" value="no" style="edgeStyle=orthogonalEdgeStyle;html=1;align=left;verticalAlign=bottom;endArrow=open;endSize=8;strokeColor=#ff0000;rounded=0;fontSize=14;entryX=1;entryY=0.5;entryDx=0;entryDy=0;" edge="1" source="kkd1HjFGx7jPlW_FTLLK-55" parent="1" target="kkd1HjFGx7jPlW_FTLLK-53">
          <mxGeometry x="-1" relative="1" as="geometry">
            <mxPoint x="1420" y="310" as="targetPoint" />
            <Array as="points">
              <mxPoint x="1440" y="280" />
              <mxPoint x="1440" y="190" />
            </Array>
          </mxGeometry>
        </mxCell>
        <mxCell id="kkd1HjFGx7jPlW_FTLLK-57" value="yes" style="edgeStyle=orthogonalEdgeStyle;html=1;align=left;verticalAlign=top;endArrow=open;endSize=8;strokeColor=#ff0000;rounded=0;fontSize=14;entryX=0.25;entryY=0.5;entryDx=0;entryDy=0;entryPerimeter=0;" edge="1" source="kkd1HjFGx7jPlW_FTLLK-55" parent="1" target="kkd1HjFGx7jPlW_FTLLK-60">
          <mxGeometry x="-1" relative="1" as="geometry">
            <mxPoint x="1320" y="370" as="targetPoint" />
          </mxGeometry>
        </mxCell>
        <mxCell id="kkd1HjFGx7jPlW_FTLLK-67" style="edgeStyle=orthogonalEdgeStyle;rounded=0;orthogonalLoop=1;jettySize=auto;html=1;exitX=0.75;exitY=0.5;exitDx=0;exitDy=0;exitPerimeter=0;entryX=0.25;entryY=0;entryDx=0;entryDy=0;fontSize=14;strokeColor=#FF0000;" edge="1" parent="1" source="kkd1HjFGx7jPlW_FTLLK-60" target="kkd1HjFGx7jPlW_FTLLK-64">
          <mxGeometry relative="1" as="geometry">
            <Array as="points">
              <mxPoint x="1430" y="355" />
            </Array>
          </mxGeometry>
        </mxCell>
        <mxCell id="kkd1HjFGx7jPlW_FTLLK-60" value="" style="shape=line;html=1;strokeWidth=6;strokeColor=#ff0000;fontSize=14;" vertex="1" parent="1">
          <mxGeometry x="1270" y="350" width="200" height="10" as="geometry" />
        </mxCell>
        <mxCell id="kkd1HjFGx7jPlW_FTLLK-61" value="" style="edgeStyle=orthogonalEdgeStyle;html=1;verticalAlign=bottom;endArrow=open;endSize=8;strokeColor=#ff0000;rounded=0;fontSize=14;entryX=0.5;entryY=0;entryDx=0;entryDy=0;" edge="1" source="kkd1HjFGx7jPlW_FTLLK-60" parent="1" target="kkd1HjFGx7jPlW_FTLLK-62">
          <mxGeometry relative="1" as="geometry">
            <mxPoint x="1320" y="460" as="targetPoint" />
            <Array as="points">
              <mxPoint x="1320" y="390" />
              <mxPoint x="1320" y="390" />
            </Array>
          </mxGeometry>
        </mxCell>
        <mxCell id="kkd1HjFGx7jPlW_FTLLK-62" value="Fill up Guidance Evaluation form" style="rounded=1;whiteSpace=wrap;html=1;arcSize=40;fontColor=#000000;fillColor=#ffffc0;strokeColor=#ff0000;fontSize=14;" vertex="1" parent="1">
          <mxGeometry x="1260" y="400" width="120" height="40" as="geometry" />
        </mxCell>
        <mxCell id="kkd1HjFGx7jPlW_FTLLK-63" value="" style="edgeStyle=orthogonalEdgeStyle;html=1;verticalAlign=bottom;endArrow=open;endSize=8;strokeColor=#ff0000;rounded=0;fontSize=14;entryX=0.108;entryY=0.259;entryDx=0;entryDy=0;entryPerimeter=0;" edge="1" source="kkd1HjFGx7jPlW_FTLLK-62" parent="1" target="kkd1HjFGx7jPlW_FTLLK-68">
          <mxGeometry relative="1" as="geometry">
            <mxPoint x="1320" y="510" as="targetPoint" />
            <Array as="points">
              <mxPoint x="1306" y="450" />
              <mxPoint x="1306" y="450" />
            </Array>
          </mxGeometry>
        </mxCell>
        <mxCell id="kkd1HjFGx7jPlW_FTLLK-64" value="Fill up Consent form" style="rounded=1;whiteSpace=wrap;html=1;arcSize=40;fontColor=#000000;fillColor=#ffffc0;strokeColor=#ff0000;fontSize=14;" vertex="1" parent="1">
          <mxGeometry x="1400" y="400" width="120" height="40" as="geometry" />
        </mxCell>
        <mxCell id="kkd1HjFGx7jPlW_FTLLK-65" value="" style="edgeStyle=orthogonalEdgeStyle;html=1;verticalAlign=bottom;endArrow=open;endSize=8;strokeColor=#ff0000;rounded=0;fontSize=14;entryX=0.75;entryY=0.5;entryDx=0;entryDy=0;entryPerimeter=0;" edge="1" source="kkd1HjFGx7jPlW_FTLLK-64" parent="1" target="kkd1HjFGx7jPlW_FTLLK-68">
          <mxGeometry relative="1" as="geometry">
            <mxPoint x="1460" y="510" as="targetPoint" />
          </mxGeometry>
        </mxCell>
        <mxCell id="kkd1HjFGx7jPlW_FTLLK-68" value="" style="shape=line;html=1;strokeWidth=6;strokeColor=#ff0000;fontSize=14;" vertex="1" parent="1">
          <mxGeometry x="1280" y="490" width="240" height="10" as="geometry" />
        </mxCell>
        <mxCell id="kkd1HjFGx7jPlW_FTLLK-69" value="" style="edgeStyle=orthogonalEdgeStyle;html=1;verticalAlign=bottom;endArrow=open;endSize=8;strokeColor=#ff0000;rounded=0;fontSize=14;entryX=0.5;entryY=0;entryDx=0;entryDy=0;" edge="1" source="kkd1HjFGx7jPlW_FTLLK-68" parent="1" target="kkd1HjFGx7jPlW_FTLLK-70">
          <mxGeometry relative="1" as="geometry">
            <mxPoint x="1400" y="560" as="targetPoint" />
          </mxGeometry>
        </mxCell>
        <mxCell id="kkd1HjFGx7jPlW_FTLLK-70" value="Sign Step 3" style="rounded=1;whiteSpace=wrap;html=1;arcSize=40;fontColor=#000000;fillColor=#ffffc0;strokeColor=#ff0000;fontSize=14;" vertex="1" parent="1">
          <mxGeometry x="1340" y="530" width="120" height="40" as="geometry" />
        </mxCell>
        <mxCell id="kkd1HjFGx7jPlW_FTLLK-71" value="" style="edgeStyle=orthogonalEdgeStyle;html=1;verticalAlign=bottom;endArrow=open;endSize=8;strokeColor=#ff0000;rounded=0;fontSize=14;" edge="1" source="kkd1HjFGx7jPlW_FTLLK-70" parent="1">
          <mxGeometry relative="1" as="geometry">
            <mxPoint x="1400" y="630" as="targetPoint" />
          </mxGeometry>
        </mxCell>
        <mxCell id="kkd1HjFGx7jPlW_FTLLK-72" value="" style="ellipse;html=1;shape=endState;fillColor=#000000;strokeColor=#ff0000;fontSize=14;" vertex="1" parent="1">
          <mxGeometry x="1385" y="630" width="30" height="30" as="geometry" />
        </mxCell>
        <mxCell id="kkd1HjFGx7jPlW_FTLLK-73" value="LOADING OF SUBJECTS" style="text;html=1;strokeColor=none;fillColor=none;align=center;verticalAlign=middle;whiteSpace=wrap;rounded=0;fontSize=14;fontStyle=1" vertex="1" parent="1">
          <mxGeometry x="1660" y="20" width="200" height="60" as="geometry" />
        </mxCell>
        <mxCell id="kkd1HjFGx7jPlW_FTLLK-74" value="" style="ellipse;html=1;shape=startState;fillColor=#000000;strokeColor=#ff0000;fontSize=14;" vertex="1" parent="1">
          <mxGeometry x="1750" y="90" width="30" height="30" as="geometry" />
        </mxCell>
        <mxCell id="kkd1HjFGx7jPlW_FTLLK-75" value="" style="edgeStyle=orthogonalEdgeStyle;html=1;verticalAlign=bottom;endArrow=open;endSize=8;strokeColor=#ff0000;rounded=0;fontSize=14;entryX=0.5;entryY=0;entryDx=0;entryDy=0;" edge="1" source="kkd1HjFGx7jPlW_FTLLK-74" parent="1" target="kkd1HjFGx7jPlW_FTLLK-76">
          <mxGeometry relative="1" as="geometry">
            <mxPoint x="1760" y="180" as="targetPoint" />
          </mxGeometry>
        </mxCell>
        <mxCell id="kkd1HjFGx7jPlW_FTLLK-81" style="edgeStyle=orthogonalEdgeStyle;rounded=0;orthogonalLoop=1;jettySize=auto;html=1;exitX=0.5;exitY=1;exitDx=0;exitDy=0;entryX=0.579;entryY=0.008;entryDx=0;entryDy=0;fontSize=14;strokeColor=#FF0000;entryPerimeter=0;" edge="1" parent="1" source="kkd1HjFGx7jPlW_FTLLK-76" target="kkd1HjFGx7jPlW_FTLLK-85">
          <mxGeometry relative="1" as="geometry" />
        </mxCell>
        <mxCell id="kkd1HjFGx7jPlW_FTLLK-76" value="Secure that Steps 1-3 were signed." style="rounded=1;whiteSpace=wrap;html=1;arcSize=40;fontColor=#000000;fillColor=#ffffc0;strokeColor=#ff0000;fontSize=14;" vertex="1" parent="1">
          <mxGeometry x="1690" y="180" width="150" height="60" as="geometry" />
        </mxCell>
        <mxCell id="kkd1HjFGx7jPlW_FTLLK-78" value="Evaluate students with the Program heads" style="rounded=1;whiteSpace=wrap;html=1;arcSize=40;fontColor=#000000;fillColor=#ffffc0;strokeColor=#ff0000;fontSize=14;" vertex="1" parent="1">
          <mxGeometry x="1662.5" y="370" width="145" height="50" as="geometry" />
        </mxCell>
        <mxCell id="kkd1HjFGx7jPlW_FTLLK-79" value="" style="edgeStyle=orthogonalEdgeStyle;html=1;verticalAlign=bottom;endArrow=open;endSize=8;strokeColor=#ff0000;rounded=0;fontSize=14;entryX=0.5;entryY=0;entryDx=0;entryDy=0;" edge="1" source="kkd1HjFGx7jPlW_FTLLK-78" parent="1" target="kkd1HjFGx7jPlW_FTLLK-82">
          <mxGeometry relative="1" as="geometry">
            <mxPoint x="1765" y="480" as="targetPoint" />
          </mxGeometry>
        </mxCell>
        <mxCell id="kkd1HjFGx7jPlW_FTLLK-82" value="Evaluated?" style="rhombus;whiteSpace=wrap;html=1;fillColor=#ffffc0;strokeColor=#ff0000;fontSize=14;" vertex="1" parent="1">
          <mxGeometry x="1692.5" y="460" width="85" height="50" as="geometry" />
        </mxCell>
        <mxCell id="kkd1HjFGx7jPlW_FTLLK-83" value="no" style="edgeStyle=orthogonalEdgeStyle;html=1;align=left;verticalAlign=bottom;endArrow=open;endSize=8;strokeColor=#ff0000;rounded=0;fontSize=14;entryX=1;entryY=0.5;entryDx=0;entryDy=0;" edge="1" source="kkd1HjFGx7jPlW_FTLLK-82" parent="1" target="kkd1HjFGx7jPlW_FTLLK-78">
          <mxGeometry x="-0.8567" y="5" relative="1" as="geometry">
            <mxPoint x="1910" y="500" as="targetPoint" />
            <Array as="points">
              <mxPoint x="1870" y="495" />
              <mxPoint x="1870" y="395" />
            </Array>
            <mxPoint as="offset" />
          </mxGeometry>
        </mxCell>
        <mxCell id="kkd1HjFGx7jPlW_FTLLK-84" value="yes" style="edgeStyle=orthogonalEdgeStyle;html=1;align=left;verticalAlign=top;endArrow=open;endSize=8;strokeColor=#ff0000;rounded=0;fontSize=14;" edge="1" source="kkd1HjFGx7jPlW_FTLLK-82" parent="1">
          <mxGeometry x="-1" y="15" relative="1" as="geometry">
            <mxPoint x="1770" y="580" as="targetPoint" />
            <mxPoint as="offset" />
          </mxGeometry>
        </mxCell>
        <mxCell id="kkd1HjFGx7jPlW_FTLLK-85" value="Signed?" style="rhombus;whiteSpace=wrap;html=1;fillColor=#ffffc0;strokeColor=#ff0000;fontSize=14;" vertex="1" parent="1">
          <mxGeometry x="1720" y="270" width="80" height="40" as="geometry" />
        </mxCell>
        <mxCell id="kkd1HjFGx7jPlW_FTLLK-86" value="no" style="edgeStyle=orthogonalEdgeStyle;html=1;align=left;verticalAlign=bottom;endArrow=open;endSize=8;strokeColor=#ff0000;rounded=0;fontSize=14;entryX=1;entryY=0.5;entryDx=0;entryDy=0;" edge="1" source="kkd1HjFGx7jPlW_FTLLK-85" parent="1" target="kkd1HjFGx7jPlW_FTLLK-76">
          <mxGeometry x="-1" relative="1" as="geometry">
            <mxPoint x="2120" y="250" as="targetPoint" />
            <Array as="points">
              <mxPoint x="1870" y="290" />
              <mxPoint x="1870" y="210" />
            </Array>
          </mxGeometry>
        </mxCell>
        <mxCell id="kkd1HjFGx7jPlW_FTLLK-87" value="yes" style="edgeStyle=orthogonalEdgeStyle;html=1;align=left;verticalAlign=top;endArrow=open;endSize=8;strokeColor=#ff0000;rounded=0;fontSize=14;entryX=0.5;entryY=0;entryDx=0;entryDy=0;" edge="1" source="kkd1HjFGx7jPlW_FTLLK-85" parent="1" target="kkd1HjFGx7jPlW_FTLLK-78">
          <mxGeometry x="-1" relative="1" as="geometry">
            <mxPoint x="1980" y="330" as="targetPoint" />
          </mxGeometry>
        </mxCell>
      </root>
    </mxGraphModel>
  </diagram>
</mxfile>
